<svg width="1920" height="935" viewBox="0 0 1920 935" fill="none" xmlns="http://www.w3.org/2000/svg">
<path d="M2025 335.127C1971.44 300.431 1729.31 -0.912052 948.5 312.338C167.691 625.588 -63.9939 517.061 -187 217.561" stroke="url(#paint0_linear_404_1051)" stroke-width="1.05585" stroke-miterlimit="10"/>
<path d="M2023.51 323.505C1972.5 290.461 1726.29 6.80037 952.418 323.764C178.545 640.728 -62.4728 492.481 -179.63 207.25" stroke="url(#paint1_linear_404_1051)" stroke-width="1.05585" stroke-miterlimit="10"/>
<path d="M2022.02 311.9C1973.57 280.508 1723.26 14.5166 956.325 335.222C189.389 655.927 -60.9732 467.931 -172.27 196.956" stroke="url(#paint2_linear_404_1051)" stroke-width="1.05585" stroke-miterlimit="10"/>
<path d="M2020.53 300.283C1974.62 270.543 1720.24 22.2341 960.23 346.667C200.221 671.1 -59.4755 443.369 -164.912 186.663" stroke="url(#paint3_linear_404_1051)" stroke-width="1.05585" stroke-miterlimit="10"/>
<path d="M2019.04 288.66C1975.69 260.573 1717.21 29.9331 964.137 358.094C211.065 686.255 -57.9754 418.789 -157.552 176.338" stroke="url(#paint4_linear_404_1051)" stroke-width="1.05585" stroke-miterlimit="10"/>
<path d="M2017.57 277.056C1976.76 250.62 1714.19 37.6633 968.065 369.552C221.94 701.44 -56.4556 394.239 -150.173 166.057" stroke="url(#paint5_linear_404_1051)" stroke-width="1.05585" stroke-miterlimit="10"/>
<path d="M2016.08 265.433C1977.82 240.65 1711.16 45.3759 971.972 380.992C232.784 716.608 -54.9556 369.672 -142.813 155.746" stroke="url(#paint6_linear_404_1051)" stroke-width="1.05585" stroke-miterlimit="10"/>
<path d="M2014.59 253.815C1978.88 230.684 1708.13 53.0792 975.879 392.423C243.628 731.767 -53.4558 345.096 -135.453 145.439" stroke="url(#paint7_linear_404_1051)" stroke-width="1.05585" stroke-miterlimit="10"/>
<path d="M2013.1 242.193C1979.95 220.714 1705.11 60.7917 979.784 403.863C254.459 746.935 -51.9476 320.529 -128.106 135.127" stroke="url(#paint8_linear_404_1051)" stroke-width="1.05585" stroke-miterlimit="10"/>
<path d="M2011.61 230.588C1981 210.762 1702.08 68.5083 983.704 415.321C265.326 762.134 -50.4353 295.98 -120.734 124.847" stroke="url(#paint9_linear_404_1051)" stroke-width="1.05585" stroke-miterlimit="10"/>
<path d="M2010.12 218.968C1982.07 200.794 1699.05 76.2232 987.609 426.75C276.169 777.277 -48.9372 271.402 -113.376 114.524" stroke="url(#paint10_linear_404_1051)" stroke-width="1.05585" stroke-miterlimit="10"/>
<path d="M2008.64 207.348C1983.15 190.826 1696.04 83.9241 991.526 438.192C287.011 792.461 -47.4283 246.837 -106.007 104.228" stroke="url(#paint11_linear_404_1051)" stroke-width="1.05585" stroke-miterlimit="10"/>
<path d="M2007.16 195.741C1984.2 180.871 1693.01 91.6523 995.433 449.648C297.856 807.644 -45.9283 222.286 -98.6467 93.9326" stroke="url(#paint12_linear_404_1051)" stroke-width="1.05585" stroke-miterlimit="10"/>
<path d="M2005.67 184.119C1985.27 170.901 1689.98 99.3512 999.351 461.075C308.721 822.799 -44.4177 197.719 -91.2762 83.6211" stroke="url(#paint13_linear_404_1051)" stroke-width="1.05585" stroke-miterlimit="10"/>
<path d="M2004.18 172.5C1986.33 160.935 1686.95 107.068 1003.26 472.519C319.565 837.971 -42.9073 173.156 -83.9164 73.3134" stroke="url(#paint14_linear_404_1051)" stroke-width="1.05585" stroke-miterlimit="10"/>
<path d="M2002.69 160.892C1987.39 150.979 1683.93 114.78 1007.16 483.973C330.396 853.166 -41.41 148.603 -76.5592 63.0294" stroke="url(#paint15_linear_404_1051)" stroke-width="1.05585" stroke-miterlimit="10"/>
<path d="M2001.2 149.274C1988.45 141.013 1680.9 122.497 1011.07 495.418C341.24 868.338 -39.8992 124.027 -69.1884 52.7223" stroke="url(#paint16_linear_404_1051)" stroke-width="1.05585" stroke-miterlimit="10"/>
<path d="M1999.72 137.655C1989.52 131.047 1677.88 130.214 1015 506.848C352.115 883.483 -38.4003 99.4634 -61.8295 42.4146" stroke="url(#paint17_linear_404_1051)" stroke-width="1.05585" stroke-miterlimit="10"/>
<path d="M1998.23 126.035C1990.58 121.078 1674.86 137.914 1018.9 518.29C362.949 898.666 -36.8901 74.8986 -54.4594 32.1187" stroke="url(#paint18_linear_404_1051)" stroke-width="1.05585" stroke-miterlimit="10"/>
<path d="M1996.75 114.426C1991.65 111.122 1671.83 145.641 1022.81 529.744C373.793 913.848 -35.3901 50.3316 -47.0995 21.8072" stroke="url(#paint19_linear_404_1051)" stroke-width="1.05585" stroke-miterlimit="10"/>
<path d="M1995.26 102.81C1992.7 101.158 1668.8 153.346 1026.72 541.177C384.635 929.009 -33.882 25.7711 -39.742 11.5157" stroke="url(#paint20_linear_404_1051)" stroke-width="1.05585" stroke-miterlimit="10"/>
<path d="M1993.77 91.188C1993.77 91.188 1665.77 161.058 1030.64 552.618C395.502 944.177 -32.3695 1.20422 -32.3695 1.20422" stroke="white" stroke-width="1.05585" stroke-miterlimit="10"/>
<path d="M1990.46 113.061C1989.22 111.286 1653.64 146.555 1029.61 534.441C405.585 922.328 -14.378 50.9187 -31.451 44.6922" stroke="#00FFFF" stroke-opacity="0.5" stroke-width="1.05585" stroke-miterlimit="10"/>
<path d="M1987.16 134.951C1984.67 131.401 1641.5 132.083 1028.59 516.296C415.679 900.509 3.60324 100.637 -30.5323 88.184" stroke="#94D1C0" stroke-width="1.05585" stroke-miterlimit="10"/>
<path d="M1983.86 156.828C1980.12 151.502 1629.35 117.598 1027.57 498.124C425.794 878.65 21.595 150.328 -29.6136 131.676" stroke="#94D1C0" stroke-opacity="0.3" stroke-width="1.05585" stroke-miterlimit="10"/>
<path d="M1980.55 178.698C1975.57 171.597 1617.21 103.092 1026.55 479.959C435.885 856.825 39.5936 200.04 -28.688 175.161" stroke="#94D1C0" stroke-opacity="0.3" stroke-width="1.05585" stroke-miterlimit="10"/>
<path d="M1977.24 200.575C1971.03 191.7 1605.07 88.6078 1025.52 461.788C445.98 834.968 57.5871 249.746 -27.7676 218.64" stroke="#D6E1F9" stroke-width="1.05585" stroke-miterlimit="10"/>
<path d="M1973.93 222.45C1966.46 211.8 1592.93 74.1068 1024.5 443.627C456.075 813.148 75.569 299.462 -26.8482 262.131" stroke="#94D1C0" stroke-width="1.05585" stroke-miterlimit="10"/>
<path d="M1970.62 244.321C1961.91 231.896 1580.79 59.6156 1023.48 425.463C466.169 791.31 93.5607 349.161 -25.9295 305.617" stroke="#00FFFF" stroke-opacity="0.5" stroke-width="1.05585" stroke-miterlimit="10"/>
<path d="M1967.32 266.197C1957.36 251.997 1568.64 45.116 1022.45 407.29C476.261 769.465 111.551 398.865 -25.0022 349.094" stroke="white" stroke-width="1.05585" stroke-miterlimit="10"/>
<path d="M1964.02 288.085C1952.81 272.109 1556.5 30.6413 1021.43 389.129C486.357 747.617 129.544 448.581 -24.0815 392.584" stroke="#94D1C0" stroke-width="1.05585" stroke-miterlimit="10"/>
<path d="M1960.71 309.96C1948.26 292.209 1544.36 16.1543 1020.41 370.969C496.47 725.783 147.534 498.298 -23.1542 436.074" stroke="#F4F4F4" stroke-width="1.05585" stroke-miterlimit="10"/>
<path d="M1957.4 331.837C1943.71 312.311 1532.21 1.65486 1019.39 352.796C506.565 703.938 165.526 547.989 -22.2355 479.552" stroke="#A1BBDB" stroke-width="1.05585" stroke-miterlimit="10"/>
<path d="M1954.09 353.71C1939.16 332.408 1520.07 -12.8344 1018.36 334.634C516.639 682.102 183.508 597.703 -21.3261 523.054" stroke="#00FFFF" stroke-opacity="0.5" stroke-width="1.05585" stroke-miterlimit="10"/>
<path d="M1950.79 375.585C1934.61 352.509 1507.93 -27.3345 1017.34 316.461C526.753 660.256 201.51 647.407 -20.3973 566.531" stroke="#94D1C0" stroke-width="1.05585" stroke-miterlimit="10"/>
<path d="M1947.48 397.464C1930.06 372.612 1495.79 -41.8182 1016.32 298.304C536.847 638.426 219.491 697.127 -19.4786 610.025" stroke="white" stroke-width="1.05585" stroke-miterlimit="10"/>
<path d="M1944.18 419.334C1925.51 392.707 1483.65 -56.3102 1015.29 280.125C546.941 616.561 237.483 746.812 -18.5599 653.496" stroke="#00FFFF" stroke-opacity="0.5" stroke-width="1.05585" stroke-miterlimit="10"/>
<path d="M1940.87 441.21C1920.96 412.808 1471.5 -70.8102 1014.28 261.966C557.055 594.742 255.484 796.529 -17.6324 696.987" stroke="#94D1C0" stroke-width="1.05585" stroke-miterlimit="10"/>
<path d="M1937.57 463.099C1916.41 432.922 1459.37 -85.2831 1013.26 243.806C567.14 572.896 273.477 846.247 -16.7117 740.478" stroke="#77C9B2" stroke-width="1.05585" stroke-miterlimit="10"/>
<path d="M1934.25 484.972C1911.84 453.02 1447.22 -99.786 1012.22 225.644C577.222 551.074 291.447 895.961 -15.7942 783.966" stroke="white" stroke-width="1.05585" stroke-miterlimit="10"/>
<path d="M1930.95 506.847C1907.3 473.121 1435.08 -114.273 1011.21 207.471C587.338 529.214 309.449 945.651 -14.8649 827.444" stroke="#00FFFF" stroke-opacity="0.5" stroke-width="1.05585" stroke-miterlimit="10"/>
<path d="M1927.64 528.723C1902.75 493.221 1422.94 -128.76 1010.18 189.311C597.431 507.381 327.441 995.369 -13.9464 870.934" stroke="white" stroke-width="1.05585" stroke-miterlimit="10"/>
<path d="M1924.34 550.596C1898.2 513.319 1410.79 -143.262 1009.16 171.135C607.526 485.532 345.433 1045.07 -13.0275 914.422" stroke="#94D1C0" stroke-width="1.05585" stroke-miterlimit="10"/>
<defs>
<linearGradient id="paint0_linear_404_1051" x1="1924.73" y1="-106.67" x2="-153.463" y2="366.776" gradientUnits="userSpaceOnUse">
<stop stop-color="#F4F4F4"/>
<stop offset="1" stop-color="#D9E9E2"/>
</linearGradient>
<linearGradient id="paint1_linear_404_1051" x1="1932.13" y1="-100.242" x2="-149.236" y2="350.503" gradientUnits="userSpaceOnUse">
<stop stop-color="#A8F8F8" stop-opacity="0.5"/>
<stop offset="1" stop-color="white"/>
</linearGradient>
<linearGradient id="paint2_linear_404_1051" x1="1939.14" y1="-93.6259" x2="-144.602" y2="334.159" gradientUnits="userSpaceOnUse">
<stop stop-color="#94D1C0"/>
<stop offset="1" stop-color="white"/>
</linearGradient>
<linearGradient id="paint3_linear_404_1051" x1="1945.75" y1="-86.7802" x2="-140.018" y2="317.973" gradientUnits="userSpaceOnUse">
<stop stop-color="#A1BBDB"/>
<stop offset="1" stop-color="#00FFFF" stop-opacity="0.5"/>
</linearGradient>
<linearGradient id="paint4_linear_404_1051" x1="1952" y1="-79.7724" x2="-135.08" y2="302.075" gradientUnits="userSpaceOnUse">
<stop stop-color="#00FFFF" stop-opacity="0.5"/>
<stop offset="1" stop-color="#94D1C0"/>
</linearGradient>
<linearGradient id="paint5_linear_404_1051" x1="1957.82" y1="-72.6057" x2="-129.969" y2="286.129" gradientUnits="userSpaceOnUse">
<stop stop-color="white"/>
<stop offset="1" stop-color="#D6E1F9"/>
</linearGradient>
<linearGradient id="paint6_linear_404_1051" x1="1963.24" y1="-65.2728" x2="-124.939" y2="270.505" gradientUnits="userSpaceOnUse">
<stop stop-color="#C0DBCE"/>
<stop offset="1" stop-color="#00FFFF" stop-opacity="0.5"/>
</linearGradient>
<linearGradient id="paint7_linear_404_1051" x1="1968.24" y1="-57.8436" x2="-119.536" y2="254.81" gradientUnits="userSpaceOnUse">
<stop stop-color="#94D1C0"/>
<stop offset="1" stop-color="#A1BBDB"/>
</linearGradient>
<linearGradient id="paint8_linear_404_1051" x1="1972.82" y1="-50.301" x2="-114.211" y2="239.25" gradientUnits="userSpaceOnUse">
<stop stop-color="#A6FFF4" stop-opacity="0.7"/>
<stop offset="1" stop-color="#63D0FF" stop-opacity="0.7"/>
</linearGradient>
<linearGradient id="paint9_linear_404_1051" x1="1977.4" y1="-39.4959" x2="-108.141" y2="227.161" gradientUnits="userSpaceOnUse">
<stop stop-color="#D6E1F9"/>
<stop offset="1" stop-color="#D9E9E2"/>
</linearGradient>
<linearGradient id="paint10_linear_404_1051" x1="1983.82" y1="-8.49598" x2="-99.6482" y2="235.154" gradientUnits="userSpaceOnUse">
<stop stop-color="white"/>
<stop offset="1" stop-color="#D6E1F9"/>
</linearGradient>
<linearGradient id="paint11_linear_404_1051" x1="1989.33" y1="22.5814" x2="-91.7574" y2="243.467" gradientUnits="userSpaceOnUse">
<stop stop-color="#00FFFF" stop-opacity="0.5"/>
<stop offset="1" stop-color="#A1BBDB"/>
</linearGradient>
<linearGradient id="paint12_linear_404_1051" x1="1993.9" y1="53.633" x2="-84.0314" y2="251.678" gradientUnits="userSpaceOnUse">
<stop stop-color="#00FFFF" stop-opacity="0.5"/>
<stop offset="1" stop-color="white"/>
</linearGradient>
<linearGradient id="paint13_linear_404_1051" x1="1997.55" y1="84.6544" x2="-76.9103" y2="260.134" gradientUnits="userSpaceOnUse">
<stop stop-color="#94D1C0"/>
<stop offset="1" stop-color="white" stop-opacity="0.42"/>
</linearGradient>
<linearGradient id="paint14_linear_404_1051" x1="2000.25" y1="115.545" x2="-69.9683" y2="268.42" gradientUnits="userSpaceOnUse">
<stop stop-color="white"/>
<stop offset="1" stop-color="#A6FFF4" stop-opacity="0.7"/>
</linearGradient>
<linearGradient id="paint15_linear_404_1051" x1="2002.03" y1="146.299" x2="-63.6356" y2="276.713" gradientUnits="userSpaceOnUse">
<stop stop-color="#00FFFF" stop-opacity="0.5"/>
<stop offset="1" stop-color="#94D1C0"/>
</linearGradient>
<linearGradient id="paint16_linear_404_1051" x1="2002.92" y1="176.827" x2="-57.473" y2="285.1" gradientUnits="userSpaceOnUse">
<stop stop-color="white"/>
<stop offset="1" stop-color="#C0DBCE"/>
</linearGradient>
<linearGradient id="paint17_linear_404_1051" x1="2002.89" y1="207.091" x2="-51.7096" y2="293.236" gradientUnits="userSpaceOnUse">
<stop stop-color="#94D1C0"/>
<stop offset="1" stop-color="#F4F4F4"/>
</linearGradient>
<linearGradient id="paint18_linear_404_1051" x1="2001.98" y1="237.081" x2="-46.5275" y2="301.448" gradientUnits="userSpaceOnUse">
<stop stop-color="#94D1C0" stop-opacity="0.3"/>
<stop offset="1" stop-color="#94D1C0"/>
</linearGradient>
<linearGradient id="paint19_linear_404_1051" x1="2000.17" y1="266.682" x2="-41.5303" y2="309.317" gradientUnits="userSpaceOnUse">
<stop stop-color="#77C9B2"/>
<stop offset="1" stop-color="#00FFFF" stop-opacity="0.5"/>
</linearGradient>
<linearGradient id="paint20_linear_404_1051" x1="1997.52" y1="295.929" x2="-37.0981" y2="317.208" gradientUnits="userSpaceOnUse">
<stop stop-color="#00FFFF" stop-opacity="0.5"/>
<stop offset="1" stop-color="#00FFFF" stop-opacity="0.5"/>
</linearGradient>
</defs>
</svg>
